<svg id="Layer_1" data-name="Layer 1" xmlns="http://www.w3.org/2000/svg" viewBox="0 0 1546.64 300.55"><defs><style>.cls-1,.cls-2{fill:#d4145a;}.cls-2{font-size:183.99px;font-family:HelveticaNeue, Helvetica Neue;}</style></defs><path class="cls-1" d="M-94.79,460.26a19.34,19.34,0,0,1-14.36-6.54l-.23-.25-.24-.23a20.71,20.71,0,0,1-6.46-15V338.85c0-11.21,8.8-20.33,19.61-20.33h4.8c10.82,0,19.61,9.12,19.61,20.33v75.82H2c10.82,0,19.61,9.12,19.61,20.33v4.93c0,11.21-8.79,20.33-19.61,20.33Z" transform="translate(254.53 -318.52)"/><path class="cls-1" d="M-166,528.42a19.37,19.37,0,0,1-14.35-6.54l-.23-.26-.25-.23a20.72,20.72,0,0,1-6.45-15V407c0-11.21,8.79-20.33,19.61-20.33h4.8c10.81,0,19.61,9.12,19.61,20.33v75.83h74.1c10.81,0,19.61,9.12,19.61,20.33v4.93c0,11.21-8.8,20.33-19.61,20.33Z" transform="translate(254.53 -318.52)"/><path class="cls-1" d="M-233.24,598.21a19.38,19.38,0,0,1-14.36-6.53l-.22-.26-.25-.23a20.75,20.75,0,0,1-6.46-15V476.8c0-11.21,8.8-20.33,19.61-20.33h4.8c10.82,0,19.61,9.12,19.61,20.33v75.83h74.1c10.82,0,19.61,9.12,19.61,20.33v4.92c0,11.21-8.79,20.33-19.61,20.33Z" transform="translate(254.53 -318.52)"/><text class="cls-2" transform="translate(331.58 212.05) scale(0.98 1)">Law Lava Labs</text></svg>