<svg id="Layer_1" data-name="Layer 1" xmlns="http://www.w3.org/2000/svg" viewBox="0 0 810.23 154.39"><defs><style>.cls-1,.cls-2{fill:#d4145a;}.cls-2{font-size:96.84px;font-family:HelveticaNeue, Helvetica Neue;}</style></defs><path class="cls-1" d="M174.18,455.57a6.3,6.3,0,0,1-4.73-2.18l-.23-.25-.25-.23a7.1,7.1,0,0,1-2.2-5.15v-52.3a6.74,6.74,0,0,1,6.53-6.91h2.53a6.74,6.74,0,0,1,6.53,6.91v43.7h42.79a6.74,6.74,0,0,1,6.53,6.91v2.59a6.74,6.74,0,0,1-6.53,6.91Z" transform="translate(-93.9 -388.55)"/><path class="cls-1" d="M136.69,491.45a6.33,6.33,0,0,1-4.73-2.18l-.23-.26-.24-.23a7.07,7.07,0,0,1-2.21-5.15v-52.3a6.74,6.74,0,0,1,6.53-6.91h2.53a6.74,6.74,0,0,1,6.53,6.91V475h42.79a6.74,6.74,0,0,1,6.53,6.91v2.6a6.74,6.74,0,0,1-6.53,6.91Z" transform="translate(-93.9 -388.55)"/><path class="cls-1" d="M101.31,528.18A6.3,6.3,0,0,1,96.58,526l-.23-.25-.24-.23a7.09,7.09,0,0,1-2.21-5.16V468.07a6.74,6.74,0,0,1,6.53-6.91H103a6.74,6.74,0,0,1,6.53,6.91v43.7h42.79a6.74,6.74,0,0,1,6.53,6.91v2.59a6.74,6.74,0,0,1-6.53,6.91Z" transform="translate(-93.9 -388.55)"/><text class="cls-2" transform="translate(170.73 107.81) scale(0.98 1)">Law Lava Labs</text></svg>